<svg width="560" height="320" viewBox="0 0 560 320" xmlns="http://www.w3.org/2000/svg">
  <defs>
    <style>@import url('https://fonts.googleapis.com/css2?family=Playfair+Display:ital,wght@0,400;1,400&amp;family=Cormorant+Garamond:ital,wght@0,300;1,300&amp;display=swap');</style>
  </defs>

  <!-- Rose des vents filigrane -->
  <g transform="translate(130, 160)" opacity="0.12" fill="#D4A96A" stroke="#D4A96A">
    <circle cx="0" cy="0" r="148" fill="none" stroke="#D4A96A" stroke-width="0.6"/>
    <circle cx="0" cy="0" r="112" fill="none" stroke="#D4A96A" stroke-width="0.4"/>
    <circle cx="0" cy="0" r="14" fill="none" stroke="#D4A96A" stroke-width="0.6"/>
    <polygon points="0,-148 -9,-100 0,-118 9,-100"/>
    <polygon points="0,-148 -5,-112 0,-130 5,-112"/>
    <polygon points="0,148 -9,100 0,118 9,100"/>
    <polygon points="0,148 -5,112 0,130 5,112"/>
    <polygon points="148,0 100,-9 118,0 100,9"/>
    <polygon points="148,0 112,-5 130,0 112,5"/>
    <polygon points="-148,0 -100,-9 -118,0 -100,9"/>
    <polygon points="-148,0 -112,-5 -130,0 -112,5"/>
    <polygon points="105,-105 78,-92 94,-94 92,-78"/>
    <polygon points="-105,-105 -78,-92 -94,-94 -92,-78"/>
    <polygon points="105,105 78,92 94,94 92,78"/>
    <polygon points="-105,105 -78,92 -94,94 -92,78"/>
    <line x1="0" y1="-112" x2="0" y2="-14" stroke-width="0.5"/>
    <line x1="0" y1="112" x2="0" y2="14" stroke-width="0.5"/>
    <line x1="-112" y1="0" x2="-14" y2="0" stroke-width="0.5"/>
    <line x1="112" y1="0" x2="14" y2="0" stroke-width="0.5"/>
    <line x1="-79" y1="-79" x2="-10" y2="-10" stroke-width="0.4"/>
    <line x1="79" y1="-79" x2="10" y2="-10" stroke-width="0.4"/>
    <line x1="-79" y1="79" x2="-10" y2="10" stroke-width="0.4"/>
    <line x1="79" y1="79" x2="10" y2="10" stroke-width="0.4"/>
    <circle cx="0" cy="-148" r="2"/>
    <circle cx="0" cy="148" r="2"/>
    <circle cx="-148" cy="0" r="2"/>
    <circle cx="148" cy="0" r="2"/>
    <circle cx="105" cy="-105" r="1.5"/>
    <circle cx="-105" cy="-105" r="1.5"/>
    <circle cx="105" cy="105" r="1.5"/>
    <circle cx="-105" cy="105" r="1.5"/>
    <polygon points="0,-14 8,0 0,14 -8,0"/>
  </g>

  <!-- Tasse -->
  <g transform="translate(14, 100)">
    <ellipse cx="60" cy="108" rx="64" ry="11" fill="none" stroke="#B5763A" stroke-width="1.2"/>
    <ellipse cx="60" cy="108" rx="45" ry="7" fill="rgba(58,30,16,0.4)"/>
    <path d="M22 62 Q20 108 60 108 Q100 108 98 62 Z" fill="rgba(44,24,16,0.3)" stroke="#B5763A" stroke-width="1.2"/>
    <ellipse cx="60" cy="62" rx="38" ry="9" fill="rgba(44,24,16,0.5)" stroke="#B5763A" stroke-width="1.2"/>
    <ellipse cx="60" cy="62" rx="31" ry="7" fill="#6B3A1F" opacity="0.5"/>
    <path d="M98 72 Q124 72 124 86 Q124 100 98 96" fill="none" stroke="#B5763A" stroke-width="1.5"/>
    <path d="M38 48 Q35 33 40 18" fill="none" stroke="#D4A96A" stroke-width="1" opacity="0.6" stroke-linecap="round"/>
    <path d="M60 44 Q57 28 62 12" fill="none" stroke="#D4A96A" stroke-width="1" opacity="0.5" stroke-linecap="round"/>
    <path d="M80 48 Q77 32 82 18" fill="none" stroke="#D4A96A" stroke-width="1" opacity="0.4" stroke-linecap="round"/>
  </g>

  <!-- Séparateur gauche -->
  <line x1="160" y1="160" x2="183" y2="160" stroke="#B5763A" stroke-width="0.7" opacity="0.5"/>
  <polygon points="192,155 197,160 192,165 187,160" fill="#B5763A" opacity="0.6"/>
  <line x1="202" y1="160" x2="222" y2="160" stroke="#B5763A" stroke-width="0.7" opacity="0.5"/>


  <!-- TEA -->
  <text x="390" y="118"
    font-family="'Playfair Display', Georgia, serif"
    font-size="68" font-weight="400"
    fill="#FAF6F0" text-anchor="middle" letter-spacing="6">Tea</text>

  <!-- for -->
  <text x="390" y="152"
    font-family="'Playfair Display', Georgia, serif"
    font-size="22" font-style="italic" font-weight="400"
    fill="#B5763A" text-anchor="middle" letter-spacing="8">for</text>

  <!-- THREE -->
  <text x="390" y="204"
    font-family="'Playfair Display', Georgia, serif"
    font-size="68" font-weight="400"
    fill="#FAF6F0" text-anchor="middle" letter-spacing="6">Three</text>

  <!-- Séparateur bas -->
  <line x1="308" y1="222" x2="372" y2="222" stroke="#B5763A" stroke-width="0.7"/>
  <polygon points="390,218 394,222 390,226 386,222" fill="#B5763A"/>
  <line x1="408" y1="222" x2="472" y2="222" stroke="#B5763A" stroke-width="0.7"/>

  <!-- Slogan -->
  <text x="390" y="254"
    font-family="'Cormorant Garamond', Georgia, serif"
    font-size="17" font-style="italic" font-weight="300"
    fill="#D4A96A" text-anchor="middle" letter-spacing="3">Steeped in memories</text>

  <!-- Ornements coins -->
  <g opacity="0.22" stroke="#B5763A" stroke-width="0.8" fill="none">
    <line x1="16" y1="16" x2="46" y2="16"/>
    <line x1="16" y1="16" x2="16" y2="44"/>
    <line x1="544" y1="16" x2="514" y2="16"/>
    <line x1="544" y1="16" x2="544" y2="44"/>
    <line x1="16" y1="304" x2="46" y2="304"/>
    <line x1="16" y1="304" x2="16" y2="276"/>
    <line x1="544" y1="304" x2="514" y2="304"/>
    <line x1="544" y1="304" x2="544" y2="276"/>
  </g>
</svg>
