<svg width="680" height="320" viewBox="0 0 680 320" xmlns="http://www.w3.org/2000/svg">
  <defs>
    <style>
      @import url('https://fonts.googleapis.com/css2?family=Playfair+Display:ital,wght@0,400;1,400&amp;family=Cormorant+Garamond:ital,wght@0,300;1,300&amp;display=swap');
    </style>
  </defs>

  <rect width="680" height="320" fill="#2C1810"/>

  <g transform="translate(340, 160)" opacity="0.07" fill="#D4A96A" stroke="#D4A96A">
    <circle cx="0" cy="0" r="148" fill="none" stroke="#D4A96A" stroke-width="0.6"/>
    <circle cx="0" cy="0" r="112" fill="none" stroke="#D4A96A" stroke-width="0.4"/>
    <circle cx="0" cy="0" r="14" fill="none" stroke="#D4A96A" stroke-width="0.6"/>
    <polygon points="0,-148 -9,-100 0,-118 9,-100" fill="#D4A96A"/>
    <polygon points="0,-148 -5,-112 0,-130 5,-112" fill="#D4A96A"/>
    <polygon points="0,148 -9,100 0,118 9,100" fill="#D4A96A"/>
    <polygon points="0,148 -5,112 0,130 5,112" fill="#D4A96A"/>
    <polygon points="148,0 100,-9 118,0 100,9" fill="#D4A96A"/>
    <polygon points="148,0 112,-5 130,0 112,5" fill="#D4A96A"/>
    <polygon points="-148,0 -100,-9 -118,0 -100,9" fill="#D4A96A"/>
    <polygon points="-148,0 -112,-5 -130,0 -112,5" fill="#D4A96A"/>
    <polygon points="105,-105 78,-92 94,-94 92,-78" fill="#D4A96A"/>
    <polygon points="-105,-105 -78,-92 -94,-94 -92,-78" fill="#D4A96A"/>
    <polygon points="105,105 78,92 94,94 92,78" fill="#D4A96A"/>
    <polygon points="-105,105 -78,92 -94,94 -92,78" fill="#D4A96A"/>
    <line x1="0" y1="-112" x2="0" y2="-14" stroke="#D4A96A" stroke-width="0.5"/>
    <line x1="0" y1="112" x2="0" y2="14" stroke="#D4A96A" stroke-width="0.5"/>
    <line x1="-112" y1="0" x2="-14" y2="0" stroke="#D4A96A" stroke-width="0.5"/>
    <line x1="112" y1="0" x2="14" y2="0" stroke="#D4A96A" stroke-width="0.5"/>
    <line x1="-79" y1="-79" x2="-10" y2="-10" stroke="#D4A96A" stroke-width="0.4"/>
    <line x1="79" y1="-79" x2="10" y2="-10" stroke="#D4A96A" stroke-width="0.4"/>
    <line x1="-79" y1="79" x2="-10" y2="10" stroke="#D4A96A" stroke-width="0.4"/>
    <line x1="79" y1="79" x2="10" y2="10" stroke="#D4A96A" stroke-width="0.4"/>
    <circle cx="0" cy="-148" r="2" fill="#D4A96A"/>
    <circle cx="0" cy="148" r="2" fill="#D4A96A"/>
    <circle cx="-148" cy="0" r="2" fill="#D4A96A"/>
    <circle cx="148" cy="0" r="2" fill="#D4A96A"/>
    <circle cx="105" cy="-105" r="1.5" fill="#D4A96A"/>
    <circle cx="-105" cy="-105" r="1.5" fill="#D4A96A"/>
    <circle cx="105" cy="105" r="1.5" fill="#D4A96A"/>
    <circle cx="-105" cy="105" r="1.5" fill="#D4A96A"/>
    <polygon points="0,-14 8,0 0,14 -8,0" fill="#D4A96A"/>
  </g>

  <g transform="translate(74, 118)">
    <ellipse cx="60" cy="108" rx="64" ry="11" fill="none" stroke="#B5763A" stroke-width="1.2"/>
    <ellipse cx="60" cy="108" rx="45" ry="7" fill="#3A1E10"/>
    <path d="M22 62 Q20 108 60 108 Q100 108 98 62 Z" fill="#3A1E10" stroke="#B5763A" stroke-width="1.2"/>
    <ellipse cx="60" cy="62" rx="38" ry="9" fill="#2C1810" stroke="#B5763A" stroke-width="1.2"/>
    <ellipse cx="60" cy="62" rx="31" ry="7" fill="#6B3A1F" opacity="0.8"/>
    <path d="M98 72 Q124 72 124 86 Q124 100 98 96" fill="none" stroke="#B5763A" stroke-width="1.5"/>
    <path d="M38 48 Q35 33 40 18" fill="none" stroke="#D4A96A" stroke-width="1" opacity="0.55" stroke-linecap="round"/>
    <path d="M60 44 Q57 28 62 12" fill="none" stroke="#D4A96A" stroke-width="1" opacity="0.45" stroke-linecap="round"/>
    <path d="M80 48 Q77 32 82 18" fill="none" stroke="#D4A96A" stroke-width="1" opacity="0.35" stroke-linecap="round"/>
  </g>

  <line x1="215" y1="160" x2="238" y2="160" stroke="#B5763A" stroke-width="0.7" opacity="0.5"/>
  <polygon points="247,155 252,160 247,165 242,160" fill="#B5763A" opacity="0.6"/>
  <line x1="257" y1="160" x2="278" y2="160" stroke="#B5763A" stroke-width="0.7" opacity="0.5"/>

  <text x="340" y="118"
    font-family="'Playfair Display', Georgia, serif"
    font-size="68" font-weight="400"
    fill="#FAF6F0" text-anchor="middle" letter-spacing="6">Tea</text>

  <text x="340" y="152"
    font-family="'Playfair Display', Georgia, serif"
    font-size="22" font-style="italic" font-weight="400"
    fill="#B5763A" text-anchor="middle" letter-spacing="8">for</text>

  <text x="340" y="204"
    font-family="'Playfair Display', Georgia, serif"
    font-size="68" font-weight="400"
    fill="#FAF6F0" text-anchor="middle" letter-spacing="6">Three</text>

  <line x1="258" y1="222" x2="322" y2="222" stroke="#B5763A" stroke-width="0.7"/>
  <polygon points="340,218 344,222 340,226 336,222" fill="#B5763A"/>
  <line x1="358" y1="222" x2="422" y2="222" stroke="#B5763A" stroke-width="0.7"/>

  <text x="340" y="254"
    font-family="'Cormorant Garamond', Georgia, serif"
    font-size="17" font-style="italic" font-weight="300"
    fill="#D4A96A" text-anchor="middle" letter-spacing="3">Steeped in memories</text>

  <g opacity="0.22" stroke="#B5763A" stroke-width="0.8" fill="none">
    <line x1="30" y1="28" x2="62" y2="28"/>
    <line x1="30" y1="28" x2="30" y2="58"/>
    <line x1="650" y1="28" x2="618" y2="28"/>
    <line x1="650" y1="28" x2="650" y2="58"/>
    <line x1="30" y1="292" x2="62" y2="292"/>
    <line x1="30" y1="292" x2="30" y2="262"/>
    <line x1="650" y1="292" x2="618" y2="292"/>
    <line x1="650" y1="292" x2="650" y2="262"/>
  </g>
</svg>
